<svg xmlns="http://www.w3.org/2000/svg" width="16" height="16" viewBox="0 0 16 16" fill="none">
  <path d="M11 7.99997C11 8.12784 10.9512 8.25584 10.8535 8.35347L5.85353 13.3535C5.65816 13.5488 5.34178 13.5488 5.14653 13.3535C4.95128 13.1581 4.95116 12.8417 5.14653 12.6465L9.79303 7.99997L5.14653 3.35347C4.95116 3.15809 4.95116 2.84172 5.14653 2.64647C5.34191 2.45122 5.65828 2.45109 5.85353 2.64647L10.8535 7.64647C10.9512 7.74409 11 7.87209 11 7.99997Z" fill="#767676" fill-opacity="0.5"/>
  <path d="M5.07617 3.42383C4.84177 3.18943 4.84176 2.8105 5.07617 2.57617C5.31055 2.34195 5.68948 2.34169 5.92383 2.57617L10.9238 7.57617C11.0409 7.69328 11.0996 7.84666 11.0996 8C11.0996 8.15333 11.0409 8.30673 10.9238 8.42383L5.92383 13.4238C5.68942 13.6582 5.31048 13.6583 5.07617 13.4238C4.84196 13.1895 4.84173 12.8105 5.07617 12.5762L9.65234 8L5.07617 3.42383Z" stroke="#767676" stroke-opacity="0.5" stroke-width="0.2"/>
</svg>