<svg width="16" height="16" viewBox="0 0 16 16" fill="none" xmlns="http://www.w3.org/2000/svg">
<path d="M12.875 2.25H12.25V1.625C12.25 1.28 11.9706 1 11.625 1C11.2794 1 11 1.28 11 1.625V2.25H6V1.625C6 1.28 5.72062 1 5.375 1C5.02938 1 4.75 1.28 4.75 1.625V2.25H4.125C2.40188 2.25 1 3.65188 1 5.375V12.875C1 14.5981 2.40188 16 4.125 16H12.875C14.5981 16 16 14.5981 16 12.875V5.375C16 3.65188 14.5981 2.25 12.875 2.25ZM4.125 3.5H12.875C13.9088 3.5 14.75 4.34125 14.75 5.375V6H2.25V5.375C2.25 4.34125 3.09125 3.5 4.125 3.5ZM12.875 14.75H4.125C3.09125 14.75 2.25 13.9088 2.25 12.875V7.25H14.75V12.875C14.75 13.9088 13.9088 14.75 12.875 14.75Z" fill="#333333"/>
</svg>
