<svg width="16" height="16" viewBox="0 0 16 16" fill="none" xmlns="http://www.w3.org/2000/svg">
<path fill-rule="evenodd" clip-rule="evenodd" d="M1.41839 13.2239C1.04357 13.5988 1.04363 14.2064 1.41851 14.5812C1.79338 14.956 2.40111 14.956 2.77592 14.5811L8.13684 9.21968L13.4982 14.5806C13.873 14.9554 14.4808 14.9554 14.8556 14.5806C15.2304 14.2059 15.2304 13.5981 14.8556 13.2233L9.49415 7.86229L14.8552 2.50067C15.2299 2.12582 15.2299 1.51814 14.855 1.14336C14.4802 0.768572 13.8724 0.768629 13.4976 1.14348L8.13665 6.50499L2.77526 1.14394C2.40043 0.769128 1.79269 0.769128 1.41785 1.14394C1.04301 1.51875 1.04301 2.12644 1.41785 2.50126L6.77944 7.86238L1.41839 13.2239Z" fill="#333333"/>
</svg>
