<svg width="16" height="16" viewBox="0 0 16 16" fill="none" xmlns="http://www.w3.org/2000/svg">
<path fill-rule="evenodd" clip-rule="evenodd" d="M4.63205 1H11.368C12.0659 1.0004 12.7352 1.2738 13.2286 1.76013C13.7222 2.24645 13.9996 2.90594 14 3.59371V12.4063C13.9996 13.094 13.7222 13.7536 13.2286 14.2399C12.7352 14.7262 12.0659 14.9996 11.368 15H4.63205C3.93424 14.9992 3.26525 14.7257 2.77182 14.2395C2.27839 13.7532 2.00081 13.094 2 12.4063V3.59371C2.00081 2.90606 2.27839 2.24681 2.77182 1.76057C3.26525 1.27432 3.93424 1.0008 4.63205 1ZM12.315 13.3399C12.5661 13.0922 12.7074 12.7565 12.7077 12.4063V3.59371C12.7074 3.24353 12.5661 2.90778 12.315 2.66002C12.0639 2.41227 11.7233 2.2727 11.368 2.2719H4.63205C4.2767 2.2727 3.93616 2.41227 3.68503 2.66002C3.43389 2.90778 3.29265 3.24353 3.29224 3.59371V12.4063C3.29265 12.7565 3.43389 13.0922 3.68503 13.3399C3.93616 13.5877 4.2767 13.7273 4.63205 13.7281H11.368C11.7233 13.7273 12.0639 13.5877 12.315 13.3399ZM5.67264 4.76126H10.1739C10.2614 4.75706 10.3487 4.7704 10.4307 4.80046C10.5127 4.83052 10.5877 4.87669 10.6511 4.93616C10.7144 4.99562 10.7649 5.06715 10.7993 5.1464C10.8338 5.22566 10.8516 5.31099 10.8516 5.39721C10.8516 5.48344 10.8338 5.56877 10.7993 5.64802C10.7649 5.72728 10.7144 5.7988 10.6511 5.85827C10.5877 5.91774 10.5127 5.9639 10.4307 5.99396C10.3487 6.02403 10.2614 6.03736 10.1739 6.03316H5.67264C5.58524 6.03736 5.49789 6.02403 5.41588 5.99396C5.33387 5.9639 5.25891 5.91774 5.19555 5.85827C5.13218 5.7988 5.08175 5.72728 5.04728 5.64802C5.01282 5.56877 4.99503 5.48344 4.99503 5.39721C4.99503 5.31099 5.01282 5.22566 5.04728 5.1464C5.08175 5.06715 5.13218 4.99562 5.19555 4.93616C5.25891 4.87669 5.33387 4.83052 5.41588 4.80046C5.49789 4.7704 5.58524 4.75706 5.67264 4.76126ZM10.1739 7.36405H5.67264C5.58524 7.35984 5.49789 7.37318 5.41588 7.40324C5.33387 7.43331 5.25891 7.47947 5.19555 7.53894C5.13218 7.59841 5.08175 7.66994 5.04728 7.74919C5.01282 7.82845 4.99503 7.91376 4.99503 8C4.99503 8.08624 5.01282 8.17157 5.04728 8.25081C5.08175 8.33005 5.13218 8.40159 5.19555 8.46109C5.25891 8.52052 5.33387 8.56672 5.41588 8.59675C5.49789 8.62678 5.58524 8.64015 5.67264 8.63595H10.1739C10.2614 8.64015 10.3487 8.62678 10.4307 8.59675C10.5127 8.56672 10.5877 8.52052 10.6511 8.46109C10.7144 8.40159 10.7649 8.33005 10.7993 8.25081C10.8338 8.17157 10.8516 8.08624 10.8516 8C10.8516 7.91376 10.8338 7.82845 10.7993 7.74919C10.7649 7.66994 10.7144 7.59841 10.6511 7.53894C10.5877 7.47947 10.5127 7.43331 10.4307 7.40324C10.3487 7.37318 10.2614 7.35984 10.1739 7.36405ZM5.67264 9.96686H7.92254C8.00994 9.96266 8.09729 9.97596 8.1793 10.0061C8.26131 10.0361 8.33626 10.0823 8.39961 10.1417C8.46297 10.2012 8.51343 10.2727 8.5479 10.352C8.58236 10.4312 8.60013 10.5166 8.60013 10.6028C8.60013 10.689 8.58236 10.7743 8.5479 10.8536C8.51343 10.9329 8.46297 11.0044 8.39961 11.0638C8.33626 11.1233 8.26131 11.1695 8.1793 11.1996C8.09729 11.2296 8.00994 11.243 7.92254 11.2388H5.67264C5.58524 11.243 5.49789 11.2296 5.41588 11.1996C5.33387 11.1695 5.25891 11.1233 5.19555 11.0638C5.13218 11.0044 5.08175 10.9329 5.04728 10.8536C5.01282 10.7743 4.99503 10.689 4.99503 10.6028C4.99503 10.5166 5.01282 10.4312 5.04728 10.352C5.08175 10.2727 5.13218 10.2012 5.19555 10.1417C5.25891 10.0823 5.33387 10.0361 5.41588 10.0061C5.49789 9.97596 5.58524 9.96266 5.67264 9.96686Z" fill="#333333"/>
</svg>
