<svg width="72" height="72" viewBox="0 0 72 72" fill="none" xmlns="http://www.w3.org/2000/svg">
<path d="M47.25 11.4502C48.3815 11.4502 49.2998 12.3685 49.2998 13.5V20.25C49.2998 21.3815 48.3815 22.2998 47.25 22.2998C46.1185 22.2998 45.2002 21.3815 45.2002 20.25V13.5C45.2002 12.3685 46.1185 11.4502 47.25 11.4502Z" fill="#FF0000" stroke="white" stroke-width="0.4"/>
<path d="M47.29 24.3994C48.5998 24.3994 49.6619 25.4608 49.6621 26.7705C49.6621 28.0804 48.5999 29.1426 47.29 29.1426C45.9804 29.1423 44.9189 28.0802 44.9189 26.7705C44.9192 25.461 45.9805 24.3997 47.29 24.3994Z" fill="#FF0000" stroke="white" stroke-width="0.4"/>
<path fill-rule="evenodd" clip-rule="evenodd" d="M23.5017 16.5625H47.4983C49.9847 16.5639 52.369 17.5379 54.127 19.2704C55.8853 21.003 56.8735 23.3524 56.875 25.8026V57.1974C56.8735 59.6475 55.8853 61.9971 54.127 63.7295C52.369 65.4622 49.9847 66.436 47.4983 66.4375H23.5017C21.0157 66.4348 18.6325 65.4602 16.8746 63.728C15.1168 61.9956 14.1279 59.6473 14.125 57.1974V25.8026C14.1279 23.3528 15.1168 21.0043 16.8746 19.272C18.6325 17.5398 21.0157 16.5654 23.5017 16.5625ZM50.8722 60.5236C51.7667 59.641 52.2701 58.445 52.2713 57.1974V25.8026C52.2701 24.5551 51.7667 23.359 50.8722 22.4763C49.9776 21.5937 48.7641 21.0965 47.4983 21.0937H23.5017C22.2357 21.0965 21.0226 21.5937 20.1279 22.4763C19.2332 23.359 18.7301 24.5551 18.7286 25.8026V57.1974C18.7301 58.445 19.2332 59.641 20.1279 60.5236C21.0226 61.4064 22.2357 61.9036 23.5017 61.9064H47.4983C48.7641 61.9036 49.9776 61.4064 50.8722 60.5236ZM27.2088 29.962H43.2446C43.5562 29.947 43.8672 29.9945 44.1595 30.1016C44.4515 30.2087 44.7187 30.3732 44.9445 30.5851C45.1702 30.7969 45.3499 31.0517 45.4726 31.3341C45.5953 31.6164 45.6588 31.9204 45.6588 32.2276C45.6588 32.5347 45.5953 32.8387 45.4726 33.1211C45.3499 33.4034 45.1702 33.6582 44.9445 33.8701C44.7187 34.0819 44.4515 34.2464 44.1595 34.3535C43.8672 34.4606 43.5562 34.5081 43.2446 34.4931H27.2088C26.8974 34.5081 26.5862 34.4606 26.2941 34.3535C26.0019 34.2464 25.7349 34.0819 25.5091 33.8701C25.2834 33.6582 25.1037 33.4034 24.9809 33.1211C24.8582 32.8387 24.7948 32.5347 24.7948 32.2276C24.7948 31.9204 24.8582 31.6164 24.9809 31.3341C25.1037 31.0517 25.2834 30.7969 25.5091 30.5851C25.7349 30.3732 26.0019 30.2087 26.2941 30.1016C26.5862 29.9945 26.8974 29.947 27.2088 29.962ZM43.2446 39.2344H27.2088C26.8974 39.2194 26.5862 39.267 26.2941 39.3741C26.0019 39.4812 25.7349 39.6456 25.5091 39.8575C25.2834 40.0693 25.1037 40.3242 24.9809 40.6065C24.8582 40.8888 24.7948 41.1928 24.7948 41.5C24.7948 41.8072 24.8582 42.1112 24.9809 42.3935C25.1037 42.6758 25.2834 42.9307 25.5091 43.1426C25.7349 43.3544 26.0019 43.5189 26.2941 43.6259C26.5862 43.7329 26.8974 43.7805 27.2088 43.7656H43.2446C43.5562 43.7805 43.8672 43.7329 44.1595 43.6259C44.4515 43.5189 44.7187 43.3544 44.9445 43.1426C45.1702 42.9307 45.3499 42.6758 45.4726 42.3935C45.5953 42.1112 45.6588 41.8072 45.6588 41.5C45.6588 41.1928 45.5953 40.8888 45.4726 40.6065C45.3499 40.3242 45.1702 40.0693 44.9445 39.8575C44.7187 39.6456 44.4515 39.4812 44.1595 39.3741C43.8672 39.267 43.5562 39.2194 43.2446 39.2344ZM27.2088 48.5069H35.2241C35.5354 48.492 35.8466 48.5394 36.1387 48.6466C36.4309 48.7536 36.6979 48.9182 36.9236 49.1299C37.1493 49.3419 37.3291 49.5965 37.4519 49.879C37.5747 50.1613 37.638 50.4653 37.638 50.7725C37.638 51.0795 37.5747 51.3835 37.4519 51.666C37.3291 51.9483 37.1493 52.2032 36.9236 52.4149C36.6979 52.6269 36.4309 52.7912 36.1387 52.8984C35.8466 53.0054 35.5354 53.053 35.2241 53.0381H27.2088C26.8974 53.053 26.5862 53.0054 26.2941 52.8984C26.0019 52.7912 25.7349 52.6269 25.5091 52.4149C25.2834 52.2032 25.1037 51.9483 24.9809 51.666C24.8582 51.3835 24.7948 51.0795 24.7948 50.7725C24.7948 50.4653 24.8582 50.1613 24.9809 49.879C25.1037 49.5965 25.2834 49.3419 25.5091 49.1299C25.7349 48.9182 26.0019 48.7536 26.2941 48.6466C26.5862 48.5394 26.8974 48.492 27.2088 48.5069Z" fill="#333333"/>
<circle cx="54" cy="17" r="14" fill="white" stroke="#333333" stroke-width="4"/>
<path d="M53.9609 8.2002C55.0533 8.20035 55.9481 9.10889 55.9482 10.2383V16.9541C55.9481 18.0835 55.0533 18.992 53.9609 18.9922C52.8685 18.9922 51.9738 18.0836 51.9736 16.9541V10.2383C51.9737 9.1088 52.8684 8.2002 53.9609 8.2002Z" fill="#FF0000" stroke="white" stroke-width="0.4"/>
<path d="M54 21.083C55.2659 21.083 56.2998 22.1344 56.2998 23.4414C56.2998 24.7484 55.2659 25.7998 54 25.7998C52.7341 25.7998 51.7002 24.7484 51.7002 23.4414C51.7002 22.1344 52.7341 21.083 54 21.083Z" fill="#FF0000" stroke="white" stroke-width="0.4"/>
</svg>
