<svg width="20" height="20" viewBox="0 0 20 20" fill="none" xmlns="http://www.w3.org/2000/svg">
<path d="M19.1094 17.8262L14.6456 13.3625C15.7497 11.9775 16.3509 10.2587 16.3506 8.4875C16.3506 4.1525 12.8231 0.625 8.48813 0.625C4.15313 0.625 0.625 4.15187 0.625 8.4875C0.625 12.8231 4.1525 16.3506 8.4875 16.3506C10.2587 16.3509 11.9775 15.7497 13.3625 14.6456L17.8263 19.1094C17.9103 19.194 18.0103 19.2611 18.1204 19.3069C18.2305 19.3528 18.3486 19.3763 18.4678 19.3763C18.5871 19.3763 18.7052 19.3528 18.8153 19.3069C18.9254 19.2611 19.0253 19.194 19.1094 19.1094C19.1937 19.0252 19.2606 18.9251 19.3062 18.8151C19.3518 18.705 19.3753 18.587 19.3753 18.4678C19.3753 18.3486 19.3518 18.2306 19.3062 18.1206C19.2606 18.0105 19.1937 17.9105 19.1094 17.8262ZM2.43938 8.48812C2.43938 5.1525 5.15313 2.43937 8.48813 2.43937C11.8231 2.43937 14.5363 5.1525 14.5363 8.48812C14.5363 11.8237 11.8225 14.5362 8.48813 14.5362C5.15375 14.5362 2.43938 11.8231 2.43938 8.48812Z" fill="white"/>
<path d="M10.5287 7.58091H9.39431V6.44716C9.3881 6.21068 9.2898 5.98598 9.12035 5.82091C8.95089 5.65585 8.72368 5.56348 8.48712 5.56348C8.25056 5.56348 8.02335 5.65585 7.8539 5.82091C7.68445 5.98598 7.58614 6.21068 7.57994 6.44716V7.58091H6.44619C6.20971 7.58712 5.985 7.68542 5.81994 7.85488C5.65487 8.02433 5.5625 8.25154 5.5625 8.4881C5.5625 8.72466 5.65487 8.95187 5.81994 9.12132C5.985 9.29078 6.20971 9.38908 6.44619 9.39529H7.57994V10.5297C7.58614 10.7661 7.68445 10.9908 7.8539 11.1559C8.02335 11.321 8.25056 11.4133 8.48712 11.4133C8.72368 11.4133 8.95089 11.321 9.12035 11.1559C9.2898 10.9908 9.3881 10.7661 9.39431 10.5297V9.39529H10.5287C10.7652 9.38908 10.9899 9.29078 11.1549 9.12132C11.32 8.95187 11.4124 8.72466 11.4124 8.4881C11.4124 8.25154 11.32 8.02433 11.1549 7.85488C10.9899 7.68542 10.7652 7.58712 10.5287 7.58091Z" fill="white"/>
</svg>
