<svg width="14" height="14" viewBox="0 0 14 14" fill="none" xmlns="http://www.w3.org/2000/svg">
<path d="M9.64384 13.367H4.32377C3.18376 13.367 2.55042 13.367 2.04374 13.1137C1.53707 12.8604 1.15706 12.4803 0.967061 12.037C0.650391 11.467 0.650391 10.8337 0.650391 9.69364V4.37358C0.650391 3.23356 0.650391 2.60022 0.903727 2.09355C1.15706 1.58687 1.53707 1.20687 1.98041 1.01687C2.55042 0.700195 3.18376 0.700195 4.32377 0.700195H5.71712C6.09713 0.700195 6.35046 0.953532 6.35046 1.33354C6.35046 1.71354 6.09713 1.96688 5.71712 1.96688H4.32377C3.37376 1.96688 2.86709 1.96688 2.61375 2.09355C2.36041 2.22021 2.17041 2.41022 2.04374 2.66355C1.91707 2.91689 1.91707 3.42356 1.91707 4.37358V9.69364C1.91707 10.6437 1.91707 11.1503 2.04374 11.4037C2.17041 11.657 2.36041 11.847 2.61375 11.9737C2.86709 12.1003 3.37376 12.1003 4.32377 12.1003H9.64384C10.5939 12.1003 11.1005 12.1003 11.3539 11.9737C11.6072 11.847 11.7972 11.657 11.9239 11.4037C12.0505 11.1503 12.0505 10.6437 12.0505 9.69364V8.30029C12.0505 7.92029 12.3039 7.66695 12.6839 7.66695C13.0639 7.66695 13.3172 7.92029 13.3172 8.30029V9.69364C13.3172 10.8337 13.3172 11.467 13.0639 11.9737C12.8105 12.4803 12.4305 12.8604 11.9872 13.0504C11.4172 13.367 10.7839 13.367 9.64384 13.367ZM6.98381 7.66695C6.7938 7.66695 6.66713 7.60362 6.54047 7.47695C6.28713 7.22361 6.28713 6.84361 6.54047 6.59027L11.1639 1.96688H8.88383C8.50383 1.96688 8.25049 1.71354 8.25049 1.33354C8.25049 0.953532 8.50383 0.700195 8.88383 0.700195H12.6839C12.7472 0.700195 12.8739 0.700195 12.9372 0.763529C13.0005 0.763529 13.0639 0.826864 13.1272 0.890198C13.1906 0.953532 13.2539 1.01687 13.2539 1.0802C13.3172 1.14353 13.3172 1.2702 13.3172 1.33354V5.13359C13.3172 5.51359 13.0639 5.76693 12.6839 5.76693C12.3039 5.76693 12.0505 5.51359 12.0505 5.13359V2.85356L7.42714 7.47695C7.30048 7.60362 7.17381 7.66695 6.98381 7.66695Z" fill="#333333"/>
</svg>
