<svg width="16" height="16" viewBox="0 0 16 16" fill="none" xmlns="http://www.w3.org/2000/svg">
<path d="M15.5112 6.48276C14.4776 4.79938 12.1265 1.9751 8 1.9751C3.87353 1.9751 1.5224 4.79938 0.488783 6.48276C0.169253 6.99957 0 7.59518 0 8.20279C0 8.8104 0.169253 9.40601 0.488783 9.92282C1.5224 11.6062 3.87353 14.4305 8 14.4305C12.1265 14.4305 14.4776 11.6062 15.5112 9.92282C15.8307 9.40601 16 8.8104 16 8.20279C16 7.59518 15.8307 6.99957 15.5112 6.48276ZM14.375 9.22508C13.4873 10.6685 11.478 13.0976 8 13.0976C4.52196 13.0976 2.5127 10.6685 1.62503 9.22508C1.43519 8.91789 1.33464 8.56391 1.33464 8.20279C1.33464 7.84168 1.43519 7.48769 1.62503 7.1805C2.5127 5.73704 4.52196 3.30794 8 3.30794C11.478 3.30794 13.4873 5.73437 14.375 7.1805C14.5648 7.48769 14.6654 7.84168 14.6654 8.20279C14.6654 8.56391 14.5648 8.91789 14.375 9.22508Z" fill="#333333"/>
<path d="M8.00007 4.87061C7.34104 4.87061 6.69682 5.06603 6.14885 5.43217C5.60089 5.7983 5.17381 6.3187 4.92161 6.92757C4.66941 7.53643 4.60343 8.2064 4.732 8.85277C4.86057 9.49913 5.17792 10.0929 5.64392 10.5589C6.10992 11.0249 6.70365 11.3422 7.35001 11.4708C7.99637 11.5993 8.66635 11.5334 9.27521 11.2812C9.88407 11.029 10.4045 10.6019 10.7706 10.0539C11.1367 9.50596 11.3322 8.86173 11.3322 8.2027C11.3311 7.3193 10.9797 6.47238 10.3551 5.84772C9.73039 5.22306 8.88347 4.87166 8.00007 4.87061ZM8.00007 10.202C7.60465 10.202 7.21812 10.0847 6.88934 9.86503C6.56056 9.64535 6.30431 9.33311 6.15299 8.96779C6.00168 8.60247 5.96208 8.20049 6.03922 7.81267C6.11637 7.42485 6.30678 7.06862 6.58638 6.78901C6.86598 6.50941 7.22221 6.319 7.61003 6.24186C7.99785 6.16472 8.39984 6.20431 8.76515 6.35563C9.13047 6.50695 9.44271 6.7632 9.66239 7.09198C9.88207 7.42075 9.99933 7.80729 9.99933 8.2027C9.99933 8.73294 9.78869 9.24146 9.41376 9.61639C9.03883 9.99133 8.53031 10.202 8.00007 10.202Z" fill="#333333"/>
</svg>
