<svg width="16" height="16" viewBox="0 0 16 16" fill="none" xmlns="http://www.w3.org/2000/svg">
<g clip-path="url(#clip0_307_2022)">
<path d="M15.517 6.60247C14.9151 5.61696 14.156 4.73664 13.2696 3.99647L15.1363 2.12981C15.2577 2.00407 15.3249 1.83567 15.3234 1.66087C15.3219 1.48608 15.2518 1.31887 15.1282 1.19526C15.0046 1.07166 14.8374 1.00154 14.6626 1.00003C14.4878 0.998506 14.3194 1.0657 14.1936 1.18714L12.1636 3.21981C10.9052 2.47236 9.46658 2.08278 8.00296 2.09314C3.87563 2.09314 1.52363 4.91847 0.488964 6.60247C0.169316 7.11948 0 7.7153 0 8.32314C0 8.93098 0.169316 9.5268 0.488964 10.0438C1.0908 11.0293 1.84996 11.9096 2.7363 12.6498L0.869631 14.5165C0.805957 14.578 0.755169 14.6515 0.72023 14.7329C0.68529 14.8142 0.666899 14.9017 0.66613 14.9902C0.665361 15.0787 0.682229 15.1665 0.715749 15.2484C0.74927 15.3304 0.798772 15.4048 0.861367 15.4674C0.923962 15.53 0.998397 15.5795 1.08033 15.613C1.16226 15.6465 1.25005 15.6634 1.33856 15.6626C1.42708 15.6619 1.51456 15.6435 1.5959 15.6085C1.67724 15.5736 1.7508 15.5228 1.8123 15.4591L3.84696 13.4245C5.10381 14.1718 6.54074 14.562 8.00296 14.5531C12.1303 14.5531 14.4823 11.7278 15.517 10.0438C15.8366 9.5268 16.0059 8.93098 16.0059 8.32314C16.0059 7.7153 15.8366 7.11948 15.517 6.60247ZM1.62496 9.34581C1.43505 9.0385 1.33446 8.68439 1.33446 8.32314C1.33446 7.96189 1.43505 7.60778 1.62496 7.30047C2.5143 5.85647 4.5243 3.42647 8.00296 3.42647C9.10981 3.42027 10.2011 3.68703 11.1803 4.20314L9.8383 5.54514C9.19825 5.12021 8.4309 4.92981 7.66645 5.00624C6.902 5.08267 6.18754 5.42123 5.6443 5.96448C5.10106 6.50772 4.76249 7.22218 4.68606 7.98663C4.60963 8.75108 4.80003 9.51843 5.22496 10.1585L3.68496 11.6985C2.86837 11.0383 2.17152 10.2424 1.62496 9.34581ZM10.003 8.32314C10.003 8.85357 9.79225 9.36228 9.41718 9.73736C9.04211 10.1124 8.5334 10.3231 8.00296 10.3231C7.70597 10.322 7.4131 10.2536 7.1463 10.1231L9.80296 7.46647C9.93344 7.73327 10.0018 8.02615 10.003 8.32314ZM6.00296 8.32314C6.00296 7.79271 6.21368 7.284 6.58875 6.90893C6.96382 6.53385 7.47253 6.32314 8.00296 6.32314C8.29996 6.32429 8.59283 6.39267 8.85963 6.52314L6.20296 9.17981C6.07249 8.91301 6.00411 8.62013 6.00296 8.32314ZM14.381 9.34581C13.4916 10.7898 11.4816 13.2198 8.00296 13.2198C6.89612 13.226 5.80481 12.9593 4.82563 12.4431L6.16763 11.1011C6.80768 11.5261 7.57503 11.7165 8.33948 11.64C9.10393 11.5636 9.81839 11.225 10.3616 10.6818C10.9049 10.1386 11.2434 9.4241 11.3199 8.65965C11.3963 7.8952 11.2059 7.12785 10.781 6.48781L12.321 4.94781C13.1376 5.608 13.8344 6.40384 14.381 7.30047C14.5709 7.60778 14.6715 7.96189 14.6715 8.32314C14.6715 8.68439 14.5709 9.0385 14.381 9.34581Z" fill="#333333"/>
</g>
<defs>
<clipPath id="clip0_307_2022">
<rect width="16" height="16" fill="white"/>
</clipPath>
</defs>
</svg>
