 <svg width="17" height="16" viewBox="0 0 17 16" fill="none" xmlns="http://www.w3.org/2000/svg">
        <g opacity="0.4">
        <path d="M8.5 0.900391C12.4245 0.900391 15.5996 4.07588 15.5996 8C15.5996 11.9245 12.4241 15.0996 8.5 15.0996C4.57552 15.0996 1.40039 11.9241 1.40039 8C1.40039 4.07552 4.57588 0.900391 8.5 0.900391ZM8.5 2.07715C5.234 2.07715 2.57715 4.73397 2.57715 8C2.57715 11.266 5.234 13.9229 8.5 13.9229C11.766 13.9229 14.4229 11.266 14.4229 8C14.4229 4.73397 11.766 2.07715 8.5 2.07715Z" fill="#767676" stroke="#767676" stroke-width="0.2"/>
        <path d="M8.26367 10.0728C8.73324 10.073 9.12388 10.4635 9.12402 10.9331C9.12402 11.3915 8.74472 11.7942 8.26367 11.7944C7.78156 11.7944 7.41309 11.3908 7.41309 10.9331C7.41323 10.4642 7.79302 10.0728 8.26367 10.0728Z" fill="#767676" stroke="#767676" stroke-width="0.1"/>
        <path d="M8.40039 3.93359C9.76429 3.93359 10.6932 4.6931 10.6934 5.7207C10.6934 6.23102 10.4633 6.66871 10.2002 7.00391C9.93703 7.33921 9.638 7.57637 9.49512 7.6875C9.20986 7.91052 9.06974 8.0958 8.99902 8.28809C8.9277 8.48221 8.92481 8.68884 8.9248 8.96387C8.9248 9.07246 8.89567 9.19642 8.79102 9.29199C8.68731 9.38668 8.51732 9.44629 8.25293 9.44629C8.03371 9.44625 7.8693 9.40649 7.76367 9.28125C7.66042 9.15854 7.62402 8.96521 7.62402 8.69043C7.62403 8.22986 7.72572 7.88685 7.86816 7.625C8.01042 7.36359 8.19184 7.18522 8.34668 7.05176H8.34766C8.43547 6.97727 8.53895 6.90008 8.6416 6.82031C8.74532 6.7397 8.85019 6.655 8.94336 6.5625C9.12982 6.37733 9.26645 6.16535 9.2666 5.90039C9.2666 5.67502 9.1697 5.51074 9.01172 5.40137C8.85163 5.2906 8.62591 5.23341 8.36914 5.2334C8.10712 5.2334 7.92903 5.28346 7.7998 5.35449C7.67064 5.42554 7.58622 5.52073 7.51465 5.61914C7.47805 5.66948 7.44655 5.71712 7.41211 5.7666C7.3786 5.81474 7.34332 5.86221 7.30273 5.90332C7.21938 5.98771 7.11484 6.04492 6.95801 6.04492C6.8057 6.04492 6.63615 5.99435 6.50391 5.8877C6.37031 5.77994 6.27638 5.61567 6.27637 5.39453C6.27637 4.78983 6.9607 3.93371 8.40039 3.93359Z" fill="#767676" stroke="#767676" stroke-width="0.1"/>
        </g>
        </svg>