<svg width="17" height="18" viewBox="0 0 17 18" fill="none" xmlns="http://www.w3.org/2000/svg">
<path d="M8.10509 0.89502C3.62893 0.89502 0 4.52395 0 9.00011C0 13.4763 3.62893 17.1052 8.10509 17.1052C12.5813 17.1052 16.2102 13.4763 16.2102 9.00011C16.2102 4.52395 12.5813 0.89502 8.10509 0.89502ZM9.13152 12.4061C9.13152 12.5409 9.10497 12.6744 9.05339 12.7989C9.00181 12.9235 8.9262 13.0366 8.83089 13.1319C8.73558 13.2273 8.62242 13.3029 8.49789 13.3544C8.37336 13.406 8.23988 13.4326 8.10509 13.4326C7.9703 13.4326 7.83682 13.406 7.71229 13.3544C7.58776 13.3029 7.47461 13.2273 7.37929 13.1319C7.28398 13.0366 7.20837 12.9235 7.15679 12.7989C7.10521 12.6744 7.07866 12.5409 7.07866 12.4061V8.3001C7.07866 8.02787 7.1868 7.76679 7.37929 7.5743C7.57179 7.3818 7.83286 7.27366 8.10509 7.27366C8.37732 7.27366 8.6384 7.3818 8.83089 7.5743C9.02338 7.76679 9.13152 8.02787 9.13152 8.3001V12.4061ZM8.10509 6.62051C7.90208 6.62051 7.70363 6.56031 7.53483 6.44752C7.36604 6.33473 7.23448 6.17443 7.15679 5.98687C7.0791 5.79931 7.05877 5.59293 7.09838 5.39383C7.13798 5.19472 7.23574 5.01182 7.37929 4.86827C7.52284 4.72472 7.70573 4.62697 7.90484 4.58736C8.10395 4.54776 8.31033 4.56808 8.49789 4.64577C8.68544 4.72346 8.84575 4.85502 8.95854 5.02382C9.07132 5.19261 9.13152 5.39106 9.13152 5.59407C9.13157 5.72888 9.10504 5.86237 9.05348 5.98692C9.00191 6.11147 8.9263 6.22464 8.83098 6.31996C8.73566 6.41528 8.62249 6.49089 8.49794 6.54246C8.37339 6.59403 8.23989 6.62055 8.10509 6.62051Z" fill="#003366"/>
</svg>
