<svg width="16" height="16" viewBox="0 0 16 16" fill="none" xmlns="http://www.w3.org/2000/svg">
<path d="M4.99997 8.00003C4.99997 7.87216 5.04884 7.74416 5.14647 7.64653L10.1465 2.64653C10.3418 2.45116 10.6582 2.45116 10.8535 2.64653C11.0487 2.84191 11.0488 3.15828 10.8535 3.35353L6.20697 8.00003L10.8535 12.6465C11.0488 12.8419 11.0488 13.1583 10.8535 13.3535C10.6581 13.5488 10.3417 13.5489 10.1465 13.3535L5.14647 8.35353C5.04884 8.25591 4.99997 8.12791 4.99997 8.00003Z" fill="#767676" fill-opacity="0.5"/>
<path d="M10.9238 12.5762C11.1582 12.8106 11.1582 13.1895 10.9238 13.4238C10.6895 13.6581 10.3105 13.6583 10.0762 13.4238L5.07617 8.42383C4.95906 8.30672 4.90039 8.15334 4.90039 8C4.9004 7.84667 4.95907 7.69327 5.07617 7.57617L10.0762 2.57617C10.3106 2.3418 10.6895 2.34173 10.9238 2.57617C11.158 2.81053 11.1583 3.18947 10.9238 3.42383L6.34766 8L10.9238 12.5762Z" stroke="#767676" stroke-opacity="0.5" stroke-width="0.2"/>
</svg>
