<svg width="32" height="33" viewBox="0 0 32 33" fill="none" xmlns="http://www.w3.org/2000/svg">
<g opacity="0.6">
<path d="M30.7188 14.4762C30.5566 14.2513 30.3433 14.0682 30.0964 13.9419C29.8495 13.8157 29.5761 13.7499 29.2988 13.75H27.0488V11.5C27.0488 11.0359 26.8645 10.5908 26.5363 10.2626C26.2081 9.93437 25.763 9.75 25.2988 9.75H16.5488L13.0163 7.1C12.7132 6.87329 12.3449 6.75054 11.9663 6.75H5.29883C4.8347 6.75 4.38958 6.93437 4.06139 7.26256C3.7332 7.59075 3.54883 8.03587 3.54883 8.5V26.5C3.54883 26.6989 3.62785 26.8897 3.7685 27.0303C3.90915 27.171 4.09992 27.25 4.29883 27.25H26.6863C26.8437 27.25 26.997 27.2005 27.1246 27.1085C27.2523 27.0165 27.3478 26.8867 27.3976 26.7375L30.9588 16.0538C31.0467 15.7906 31.0708 15.5103 31.0291 15.2361C30.9874 14.9618 30.881 14.7013 30.7188 14.4762ZM5.29883 8.25H11.9663C12.0204 8.25 12.0731 8.26754 12.1163 8.3L15.8488 11.1C15.9787 11.1974 16.1366 11.25 16.2988 11.25H25.2988C25.3651 11.25 25.4287 11.2763 25.4756 11.3232C25.5225 11.3701 25.5488 11.4337 25.5488 11.5V13.75H9.02008C8.65286 13.75 8.29495 13.8656 7.99703 14.0802C7.69911 14.2949 7.47628 14.5979 7.36008 14.9462L5.04883 21.875V8.5C5.04883 8.4337 5.07517 8.37011 5.12205 8.32322C5.16894 8.27634 5.23252 8.25 5.29883 8.25ZM29.5363 15.5787L26.1463 25.75H5.34008L8.78258 15.4213C8.79914 15.3714 8.831 15.328 8.87363 15.2972C8.91627 15.2665 8.96751 15.25 9.02008 15.25H29.2988C29.3384 15.25 29.3775 15.2593 29.4128 15.2773C29.448 15.2954 29.4785 15.3215 29.5017 15.3536C29.5249 15.3857 29.5401 15.4229 29.5462 15.462C29.5522 15.5011 29.5488 15.5412 29.5363 15.5787Z" fill="#767676"/>
</g>
</svg>
