<svg width="16" height="16" viewBox="0 0 16 16" fill="none" xmlns="http://www.w3.org/2000/svg">
<mask id="mask0_1960_11696" style="mask-type:luminance" maskUnits="userSpaceOnUse" x="0" y="0" width="16" height="16">
<path d="M15.5 0.5V15.5H0.5V0.5H15.5Z" fill="white" stroke="white"/>
</mask>
<g mask="url(#mask0_1960_11696)">
<path d="M4.28906 3.74609C4.36744 3.74609 4.44515 3.76108 4.51758 3.79102C4.59007 3.82105 4.65642 3.86543 4.71191 3.9209L4.78711 4.01172C4.80929 4.04447 4.8284 4.07954 4.84375 4.11621C4.87428 4.18922 4.88962 4.26754 4.88965 4.34668C4.88965 4.42597 4.87437 4.50499 4.84375 4.57812C4.82847 4.61459 4.80915 4.64905 4.78711 4.68164L4.71191 4.77246C4.43904 5.04722 4.23084 5.37975 4.10254 5.74512C3.97429 6.11044 3.92953 6.49978 3.9707 6.88477C3.98629 7.04258 3.93832 7.20052 3.83789 7.32324C3.73742 7.44596 3.59237 7.52414 3.43457 7.54004H3.37402C3.22607 7.53986 3.08337 7.48497 2.97363 7.38574C2.86389 7.28631 2.7941 7.14928 2.7793 7.00195C2.71974 6.44006 2.78672 5.87176 2.97461 5.33887C3.16254 4.80593 3.46733 4.32119 3.86621 3.9209C3.9217 3.86542 3.98805 3.82106 4.06055 3.79102C4.13298 3.76108 4.21068 3.74609 4.28906 3.74609Z" fill="#333333" stroke="#333333" stroke-width="0.1"/>
<path d="M6.84863 0.530273C8.52395 0.531981 10.1308 1.19819 11.3154 2.38281C12.4999 3.56737 13.1662 5.1735 13.168 6.84863C13.168 8.09837 12.7969 9.32025 12.1025 10.3594C11.4082 11.3985 10.4212 12.2083 9.2666 12.6865C8.11206 13.1647 6.84184 13.2897 5.61621 13.0459C4.3906 12.8021 3.26452 12.2009 2.38086 11.3174C1.49725 10.4338 0.895228 9.30761 0.651367 8.08203C0.407556 6.85631 0.532494 5.58527 1.01074 4.43066C1.48897 3.27613 2.29886 2.28904 3.33789 1.59473C4.37694 0.900454 5.59898 0.530322 6.84863 0.530273ZM8.80859 2.11621C7.87264 1.72844 6.84228 1.62661 5.84863 1.82422C4.85512 2.02187 3.94286 2.51027 3.22656 3.22656C2.51027 3.94286 2.02187 4.85512 1.82422 5.84863C1.62661 6.84228 1.72844 7.87264 2.11621 8.80859C2.50399 9.74452 3.16052 10.5447 4.00293 11.1074C4.84527 11.6701 5.83565 11.9698 6.84863 11.9697C8.20636 11.968 9.50771 11.4278 10.4678 10.4678C11.4278 9.50771 11.968 8.20636 11.9697 6.84863C11.9698 5.83565 11.6701 4.84527 11.1074 4.00293C10.5447 3.16052 9.74452 2.50398 8.80859 2.11621Z" fill="#333333" stroke="#333333" stroke-width="0.1"/>
<path d="M10.8857 10.2891C10.9643 10.2891 11.0427 10.3039 11.1152 10.334C11.1876 10.364 11.2531 10.4085 11.3086 10.4639L15.293 14.4482C15.4051 14.5604 15.4678 14.7125 15.4678 14.8711C15.4678 15.0297 15.4051 15.1818 15.293 15.2939C15.1808 15.4061 15.0287 15.4687 14.8701 15.4688C14.7115 15.4688 14.5594 15.4061 14.4473 15.2939L10.4629 11.3096C10.4075 11.2541 10.363 11.1886 10.333 11.1162C10.3029 11.0436 10.2881 10.9653 10.2881 10.8867C10.2881 10.8083 10.303 10.7306 10.333 10.6582C10.3631 10.5856 10.4073 10.5194 10.4629 10.4639C10.5184 10.4083 10.5847 10.364 10.6572 10.334C10.7296 10.304 10.8074 10.2891 10.8857 10.2891Z" fill="#333333" stroke="#333333" stroke-width="0.1"/>
</g>
</svg>
