<svg width="12" height="9" viewBox="0 0 12 9" fill="none" xmlns="http://www.w3.org/2000/svg">
<path d="M10.5791 0.299805C10.9023 -0.032865 11.3838 -0.0329032 11.707 0.299805C12.0308 0.633282 12.0308 1.13136 11.707 1.46484L4.67871 8.7002C4.59589 8.78545 4.51496 8.84787 4.42578 8.88867C4.33686 8.92936 4.23681 8.9502 4.11426 8.9502C3.99172 8.95019 3.89165 8.92935 3.80273 8.88867C3.71357 8.84787 3.63261 8.78544 3.5498 8.7002L0.292969 5.34766C-0.0310403 5.01412 -0.0310403 4.51518 0.292969 4.18164C0.616084 3.84913 1.09772 3.84927 1.4209 4.18164L4.07812 6.91699L4.11426 6.9541L4.15039 6.91699L10.5791 0.299805Z" fill="#333333" stroke="#E8F1FC" stroke-width="0.1"/>
</svg>
