<svg width="8" height="12" viewBox="0 0 8 12" fill="none" xmlns="http://www.w3.org/2000/svg">
<path d="M3.63698 10.7963C3.75098 10.8473 3.87444 10.8736 3.99931 10.8737C4.1216 10.8743 4.24267 10.8494 4.35482 10.8006C4.46696 10.7518 4.56771 10.6802 4.65064 10.5903L6.81297 8.39401C6.90558 8.2926 6.96672 8.16646 6.98893 8.03094C7.01115 7.89542 6.9935 7.75636 6.93812 7.63069C6.88273 7.50502 6.79201 7.39816 6.677 7.32312C6.56199 7.24807 6.42764 7.20808 6.29031 7.20801H1.70831C1.56986 7.20801 1.43445 7.24859 1.31882 7.32472C1.20319 7.40085 1.11240 7.50920 1.05768 7.63637C1.00296 7.76355 0.986704 7.90397 1.01093 8.04028C1.03515 8.17659 1.09879 8.30281 1.19397 8.40334L3.33764 10.578C3.42098 10.671 3.52297 10.7454 3.63698 10.7963Z" fill="#E8F3FF"/>
</svg>
