<svg width="8" height="12" viewBox="0 0 8 12" fill="none" xmlns="http://www.w3.org/2000/svg">
<path d="M6.29015 5.20812H1.70815C1.57075 5.20802 1.43635 5.16798 1.3213 5.09288C1.20624 5.01778 1.1155 4.91085 1.06012 4.78511C1.00474 4.65937 0.987103 4.52024 1.00936 4.38466C1.03162 4.24908 1.09281 4.12289 1.18548 4.02146L3.34781 1.82512C3.43195 1.7347 3.534 1.66278 3.64746 1.61396C3.76092 1.56514 3.8833 1.54047 4.00681 1.54154C4.13032 1.5426 4.25226 1.56938 4.36486 1.62015C4.47746 1.67093 4.57825 1.74459 4.66081 1.83646L6.80448 4.01246C6.89962 4.11303 6.96322 4.23927 6.98742 4.37559C7.01162 4.5119 6.99536 4.65231 6.94065 4.77949C6.88595 4.90667 6.79519 5.01504 6.67958 5.09121C6.56398 5.16739 6.42859 5.20803 6.29015 5.20812Z" fill="#E8F3FF"/>
</svg>
