<svg width="8" height="12" viewBox="0 0 8 12" fill="none" xmlns="http://www.w3.org/2000/svg">
<path d="M6.29015 5.20812H1.70815C1.57075 5.20802 1.43635 5.16798 1.3213 5.09288C1.20624 5.01778 1.1155 4.91085 1.06012 4.78511C1.00474 4.65937 0.987103 4.52024 1.00936 4.38466C1.03162 4.24908 1.09281 4.12289 1.18548 4.02146L3.34781 1.82512C3.43195 1.7347 3.534 1.66278 3.64746 1.61396C3.76092 1.56514 3.8833 1.54047 4.00681 1.54154C4.13032 1.5426 4.25226 1.56938 4.36486 1.62015C4.47746 1.67093 4.57825 1.74459 4.66081 1.83646L6.80448 4.01246C6.89962 4.11303 6.96322 4.23927 6.98742 4.37559C7.01162 4.5119 6.99536 4.65231 6.94065 4.77949C6.88595 4.90667 6.79519 5.01504 6.67958 5.09121C6.56398 5.16739 6.42859 5.20803 6.29015 5.20812Z" fill="#E8F3FF"/>
<path d="M3.63698 10.7963C3.75098 10.8473 3.87444 10.8736 3.99931 10.8737C4.1216 10.8743 4.24267 10.8494 4.35482 10.8006C4.46696 10.7518 4.56771 10.6802 4.65064 10.5903L6.81297 8.39401C6.90558 8.2926 6.96672 8.16646 6.98893 8.03094C7.01115 7.89542 6.9935 7.75636 6.93812 7.63069C6.88273 7.50502 6.79201 7.39816 6.677 7.32312C6.56199 7.24807 6.42764 7.20808 6.29031 7.20801H1.70831C1.56986 7.20801 1.43445 7.24859 1.31882 7.32472C1.20319 7.40085 1.11240 7.50920 1.05768 7.63637C1.00296 7.76355 0.986704 7.90397 1.01093 8.04028C1.03515 8.17659 1.09879 8.30281 1.19397 8.40334L3.33764 10.578C3.42098 10.671 3.52297 10.7454 3.63698 10.7963Z" fill="#E8F3FF"/>
</svg>
