<svg width="16" height="17" viewBox="0 0 16 17" fill="none" xmlns="http://www.w3.org/2000/svg">
<path fill-rule="evenodd" clip-rule="evenodd" d="M1.41985 13.7239C1.04504 14.0988 1.0451 14.7064 1.41997 15.0812C1.79484 15.456 2.40257 15.456 2.77738 15.0811L8.13831 9.71968L13.4997 15.0806C13.8745 15.4554 14.4823 15.4554 14.8571 15.0806C15.2319 14.7059 15.2319 14.0981 14.8571 13.7233L9.49561 8.36229L14.8567 3.00067C15.2314 2.62582 15.2314 2.01814 14.8565 1.64336C14.4817 1.26857 13.8739 1.26863 13.4991 1.64348L8.13811 7.00499L2.77673 1.64394C2.40189 1.26913 1.79415 1.26913 1.41932 1.64394C1.04447 2.01875 1.04447 2.62644 1.41932 3.00126L6.7809 8.36238L1.41985 13.7239Z" fill="#333333"/>
</svg>
